{"accessors":[{"bufferView":0,"componentType":5126,"count":102,"max":[11.0,1.5,8.0],"min":[-11.0,-1.5,-8.0],"normalized":false,"type":"VEC3"},{"bufferView":1,"componentType":5126,"count":102,"max":[0.0,0.0,1.0,1.0],"min":[-1.0,-1.0,-1.0,-1.0],"normalized":false,"type":"VEC4"},{"bufferView":2,"componentType":5126,"count":102,"max":[1.0,1.0,1.0],"min":[-1.0,-1.0,-1.0],"normalized":false,"type":"VEC3"},{"bufferView":3,"componentType":5126,"count":102,"max":[1.0,1.0],"min":[0.0,0.0],"normalized":false,"type":"VEC2"},{"bufferView":4,"componentType":5123,"count":102,"max":[101.0],"min":[0.0],"normalized":false,"type":"SCALAR"},{"bufferView":5,"componentType":5126,"count":36,"max":[6.5,1.5,5.0],"min":[2.5,-1.5,-5.0],"normalized":false,"type":"VEC3"},{"bufferView":6,"componentType":5126,"count":36,"max":[0.0,0.0,0.0000763009302318096,-1.0],"min":[-1.0,-1.0,-1.0,-1.0],"normalized":false,"type":"VEC4"},{"bufferView":7,"componentType":5126,"count":36,"max":[1.0,1.0,1.0],"min":[-0.0000152592547237873,-1.0,-1.0],"normalized":false,"type":"VEC3"},{"bufferView":8,"componentType":5126,"count":36,"max":[1.0,1.0],"min":[0.0,0.0],"normalized":false,"type":"VEC2"},{"bufferView":9,"componentType":5123,"count":36,"max":[35.0],"min":[0.0],"normalized":false,"type":"SCALAR"},{"bufferView":10,"componentType":5126,"count":96,"max":[13.5,1.5,10.0],"min":[-13.5,-1.5,-10.0],"normalized":false,"type":"VEC3"},{"bufferView":11,"componentType":5126,"count":96,"max":[0.0,0.0,0.0000763009302318096,1.0],"min":[-1.0,-1.0,-1.0,-1.0],"normalized":false,"type":"VEC4"},{"bufferView":12,"componentType":5126,"count":96,"max":[1.0,1.0,1.0],"min":[-1.0,-1.0,-1.0],"normalized":false,"type":"VEC3"},{"bufferView":13,"componentType":5126,"count":96,"max":[1.0,1.0],"min":[0.0,0.0],"normalized":false,"type":"VEC2"},{"bufferView":14,"componentType":5123,"count":96,"max":[95.0],"min":[0.0],"normalized":false,"type":"SCALAR"},{"bufferView":15,"componentType":5126,"count":36,"max":[5.0,1.5,-1.5],"min":[-5.0,-1.5,-15.5],"normalized":false,"type":"VEC3"},{"bufferView":16,"componentType":5126,"count":36,"max":[0.0,0.0,0.0000763009302318096,1.0],"min":[-1.0,-1.0,-1.0,-1.0],"normalized":false,"type":"VEC4"},{"bufferView":17,"componentType":5126,"count":36,"max":[1.0,1.0,1.0],"min":[-1.0,-1.0,-1.0],"normalized":false,"type":"VEC3"},{"bufferView":18,"componentType":5126,"count":36,"max":[1.0,1.0],"min":[0.0,0.0],"normalized":false,"type":"VEC2"},{"bufferView":19,"componentType":5123,"count":36,"max":[35.0],"min":[0.0],"normalized":false,"type":"SCALAR"},{"bufferView":20,"componentType":5126,"count":540,"max":[28.0999984741211,4.5,6.0],"min":[-36.0,-1.5,-32.0],"normalized":false,"type":"VEC3"},{"bufferView":21,"componentType":5126,"count":540,"max":[1.0,0.0,1.0,1.0],"min":[-1.0,-1.0,-1.0,1.0],"normalized":false,"type":"VEC4"},{"bufferView":22,"componentType":5126,"count":540,"max":[1.0,1.0,1.0],"min":[-1.0,-1.0,-1.0],"normalized":false,"type":"VEC3"},{"bufferView":23,"componentType":5126,"count":540,"max":[1.0,1.0],"min":[0.0,0.0],"normalized":false,"type":"VEC2"},{"bufferView":24,"componentType":5123,"count":540,"max":[539.0],"min":[0.0],"normalized":false,"type":"SCALAR"},{"bufferView":25,"componentType":5126,"count":540,"max":[28.0999984741211,4.5,6.0],"min":[-36.0,-1.5,-32.0],"normalized":false,"type":"VEC3"},{"bufferView":26,"componentType":5126,"count":540,"max":[1.0,0.0,1.0,1.0],"min":[-1.0,-1.0,-1.0,1.0],"normalized":false,"type":"VEC4"},{"bufferView":27,"componentType":5126,"count":540,"max":[1.0,1.0,1.0],"min":[-1.0,-1.0,-1.0],"normalized":false,"type":"VEC3"},{"bufferView":28,"componentType":5126,"count":540,"max":[1.0,1.0],"min":[0.0,0.0],"normalized":false,"type":"VEC2"},{"bufferView":29,"componentType":5123,"count":540,"max":[539.0],"min":[0.0],"normalized":false,"type":"SCALAR"}],"asset":{"generator":"Godot Engine v4.5.1.stable.mono.official@f62fdbde15035c5576dad93e586201f4d41ef0cb","version":"2.0"},"bufferViews":[{"buffer":0,"byteLength":1224,"byteStride":12,"target":34962},{"buffer":0,"byteLength":1632,"byteOffset":1224,"byteStride":16,"target":34962},{"buffer":0,"byteLength":1224,"byteOffset":2856,"byteStride":12,"target":34962},{"buffer":0,"byteLength":816,"byteOffset":4080,"byteStride":8,"target":34962},{"buffer":0,"byteLength":204,"byteOffset":4896,"target":34963},{"buffer":0,"byteLength":432,"byteOffset":5100,"byteStride":12,"target":34962},{"buffer":0,"byteLength":576,"byteOffset":5532,"byteStride":16,"target":34962},{"buffer":0,"byteLength":432,"byteOffset":6108,"byteStride":12,"target":34962},{"buffer":0,"byteLength":288,"byteOffset":6540,"byteStride":8,"target":34962},{"buffer":0,"byteLength":72,"byteOffset":6828,"target":34963},{"buffer":0,"byteLength":1152,"byteOffset":6900,"byteStride":12,"target":34962},{"buffer":0,"byteLength":1536,"byteOffset":8052,"byteStride":16,"target":34962},{"buffer":0,"byteLength":1152,"byteOffset":9588,"byteStride":12,"target":34962},{"buffer":0,"byteLength":768,"byteOffset":10740,"byteStride":8,"target":34962},{"buffer":0,"byteLength":192,"byteOffset":11508,"target":34963},{"buffer":0,"byteLength":432,"byteOffset":11700,"byteStride":12,"target":34962},{"buffer":0,"byteLength":576,"byteOffset":12132,"byteStride":16,"target":34962},{"buffer":0,"byteLength":432,"byteOffset":12708,"byteStride":12,"target":34962},{"buffer":0,"byteLength":288,"byteOffset":13140,"byteStride":8,"target":34962},{"buffer":0,"byteLength":72,"byteOffset":13428,"target":34963},{"buffer":0,"byteLength":6480,"byteOffset":13500,"byteStride":12,"target":34962},{"buffer":0,"byteLength":8640,"byteOffset":19980,"byteStride":16,"target":34962},{"buffer":0,"byteLength":6480,"byteOffset":28620,"byteStride":12,"target":34962},{"buffer":0,"byteLength":4320,"byteOffset":35100,"byteStride":8,"target":34962},{"buffer":0,"byteLength":1080,"byteOffset":39420,"target":34963},{"buffer":0,"byteLength":6480,"byteOffset":40500,"byteStride":12,"target":34962},{"buffer":0,"byteLength":8640,"byteOffset":46980,"byteStride":16,"target":34962},{"buffer":0,"byteLength":6480,"byteOffset":55620,"byteStride":12,"target":34962},{"buffer":0,"byteLength":4320,"byteOffset":62100,"byteStride":8,"target":34962},{"buffer":0,"byteLength":1080,"byteOffset":66420,"target":34963}],"buffers":[{"byteLength":67500,"uri":"main_level0.bin"}],"extensions":{"KHR_lights_punctual":{"lights":[{"type":"directional"}]}},"extensionsUsed":["GODOT_single_root","KHR_lights_punctual"],"images":[{"uri":"textures%2F_albedo.png"}],"materials":[{"extensions":{},"pbrMetallicRoughness":{"baseColorFactor":[1.0,1.0,1.0,1.0],"baseColorTexture":{"index":0},"metallicFactor":0.0,"roughnessFactor":1.0}}],"meshes":[{"primitives":[{"attributes":{"NORMAL":2,"POSITION":0,"TANGENT":1,"TEXCOORD_0":3},"indices":4,"material":0,"mode":4}]},{"primitives":[{"attributes":{"NORMAL":7,"POSITION":5,"TANGENT":6,"TEXCOORD_0":8},"indices":9,"material":0,"mode":4}]},{"primitives":[{"attributes":{"NORMAL":12,"POSITION":10,"TANGENT":11,"TEXCOORD_0":13},"indices":14,"material":0,"mode":4}]},{"primitives":[{"attributes":{"NORMAL":17,"POSITION":15,"TANGENT":16,"TEXCOORD_0":18},"indices":19,"material":0,"mode":4}]},{"primitives":[{"attributes":{"NORMAL":22,"POSITION":20,"TANGENT":21,"TEXCOORD_0":23},"indices":24,"material":0,"mode":4}]},{"primitives":[{"attributes":{"NORMAL":27,"POSITION":25,"TANGENT":26,"TEXCOORD_0":28},"indices":29,"material":0,"mode":4}]}],"nodes":[{"children":[1,2,3,6,8,10,12,23,34],"name":"MainLevel"},{"name":"WorldEnvironment"},{"extensions":{"KHR_lights_punctual":{"light":0}},"name":"DirectionalLight3D","rotation":[-0.129409551620483,0.836516261100769,0.482962936162949,0.224143892526627]},{"children":[4,5],"mesh":0,"name":"Overhang2","translation":[-20.0,1.5,11.0]},{"name":"Overhang22","translation":[3.0,0.0,3.5]},{"name":"Corridor6","rotation":[0.0,0.70710676908493,0.0,0.70710676908493],"translation":[-5.5,-0.25,-6.94999980926514]},{"children":[7],"mesh":1,"name":"Overhang24","translation":[-25.5,1.5,-5.0]},{"name":"Overhang3","translation":[-2.0,0.0,-0.5]},{"children":[9],"mesh":2,"name":"Overhang33","translation":[1.60000002384186,1.5,-9.0]},{"name":"Overhang4","translation":[-0.5,0.0,0.0]},{"children":[11],"mesh":3,"name":"Overhang43","translation":[27.1000003814697,1.5,-0.5]},{"name":"Overhang5","translation":[0.0,0.0,7.0]},{"children":[13],"mesh":4,"name":"Room2","translation":[4.0,1.5,13.0]},{"children":[14,15,16,17,18,19,20,21,22],"name":"CSGCombiner3D"},{"name":"Room22","translation":[-24.0,1.5,-2.0]},{"name":"Corridor","translation":[-9.5,-0.25,0.5]},{"name":"Corridor2","rotation":[0.0,0.70710676908493,0.0,0.70710676908493],"translation":[-29.5,-0.25,-9.5]},{"name":"Corridor3","rotation":[0.0,1.0,0.0,-0.0000000437113882867379],"translation":[-19.5,2.75,-17.5]},{"name":"Corridor4","rotation":[0.0,0.70710676908493,0.0,0.70710676908493],"translation":[-11.5,2.75,-9.5]},{"name":"Corridor5","rotation":[0.0,1.0,0.0,-0.0000000437113882867379],"translation":[14.5,2.75,-23.5]},{"name":"Room3","translation":[-29.5,1.5,-18.0]},{"name":"Room4","translation":[-2.39999961853027,1.5,-22.0]},{"name":"Room5","translation":[23.0999984741211,1.5,-13.5]},{"children":[24],"mesh":5,"name":"Room24","translation":[4.0,1.5,13.0]},{"children":[25,26,27,28,29,30,31,32,33],"name":"CSGCombiner3D2"},{"name":"Room25","translation":[-24.0,1.5,-2.0]},{"name":"Corridor7","translation":[-9.5,-0.25,0.5]},{"name":"Corridor22","rotation":[0.0,0.70710676908493,0.0,0.70710676908493],"translation":[-29.5,-0.25,-9.5]},{"name":"Corridor32","rotation":[0.0,1.0,0.0,-0.0000000437113882867379],"translation":[-19.5,2.75,-17.5]},{"name":"Corridor42","rotation":[0.0,0.70710676908493,0.0,0.70710676908493],"translation":[-11.5,2.75,-9.5]},{"name":"Corridor52","rotation":[0.0,1.0,0.0,-0.0000000437113882867379],"translation":[14.5,2.75,-23.5]},{"name":"Room32","translation":[-29.5,1.5,-18.0]},{"name":"Room42","translation":[-2.39999961853027,1.5,-22.0]},{"name":"Room52","translation":[23.0999984741211,1.5,-13.5]},{"name":"Sprite3D","scale":[2.40000009536743,2.40000009536743,2.40000009536743],"translation":[0.0,0.100000001490116,0.0]}],"samplers":[{"magFilter":9729,"minFilter":9987,"wrapS":10497,"wrapT":10497}],"scene":0,"scenes":[{"nodes":[0]}],"textures":[{"sampler":0,"source":0}]}